<?xml version="1.0" encoding="utf-8"?>
<!-- Generator: Adobe Illustrator 21.0.0, SVG Export Plug-In . SVG Version: 6.00 Build 0)  -->
<svg version="1.1" id="Layer_1" xmlns="http://www.w3.org/2000/svg" xmlns:xlink="http://www.w3.org/1999/xlink" x="0px" y="0px"
	 viewBox="0 0 1366 768" style="enable-background:new 0 0 1366 768;" xml:space="preserve">
<style type="text/css">
	.st0{fill:#662D91;}
	.st1{fill:#0000FF;}
	.st2{fill:#FF00FF;}
	.st3{fill:#FF0000;}
	.st4{fill:#FFFF00;}
	.st5{fill:#00FF00;}
	.st6{fill:#00FFFF;}
</style>
<polyline class="st0" points="361,372 303.5,539.5 163.5,149 557.5,149 417.5,539.5 361,372 "/>
<g>
	<polygon class="st0" points="1341,148 1066,148 1036.5,226 1312.1,226 	"/>
	<polygon class="st0" points="1007.3,303 977,383 1254.1,383 1283.7,303 	"/>
	<polygon class="st0" points="918,539 1196,540 1225.6,460 947.9,460 	"/>
</g>
<polygon class="st0" points="631,148 492,539 770,539 "/>
<polygon class="st0" points="845,539 984,148 706,148 "/>
<g>
	<path class="st1" d="M972.5,472.8l25,48.5c0.5-11.7,12.3-24.1,21.6-28.9c25.6-13.2,52.7-7.4,68.3,22.9
		c14.8,28.8,4.3,55.9-21.5,69.1c-10.7,5.5-23.3,7.5-35.5,0.5l4.8,12.8l-20.3,10.4L950.8,484L972.5,472.8z M1015.3,552.4
		c8.2,15.8,25,19.7,38.7,12.7c13.9-7.2,19.5-23.3,11.6-38.6c-8.2-15.8-24.2-19.9-38.1-12.8C1013.9,520.7,1007.5,537.1,1015.3,552.4z
		"/>
	<path class="st1" d="M1150.3,427.4l20.8-10.7l45.2,87.6l-20.4,10.5l-7.7-12.2c0.3,12.9-10.8,24.9-20.5,30.1
		c-25.9,13.6-53.3,7.5-69.2-23.3c-15.6-30.2-3.7-56.4,22-69.4c11.7-6.1,25.8-6.3,35.2-0.2L1150.3,427.4z M1120.2,498.3
		c8.6,16.7,25.3,20.7,39.7,13.3c34.1-17.6,6.7-70.7-27.4-53.1C1118.1,465.9,1111.6,481.6,1120.2,498.3z"/>
	<path class="st1" d="M1203.5,368.7l12.8,24.9l24.2-12.5l9.6,18.7l-24.4,12.6l19.5,37.9c4.3,8.4,11,10.1,17.8,6.6
		c3.4-1.7,6.7-4.8,9.1-8.1l15.6,15.4c-4.9,5.7-9.5,9.4-16,13c-18.7,10.5-36.7,6.1-48-15.8l-19.5-37.9l-16.4,8.4l-9.6-18.7l16.4-8.4
		l-11.6-22.6L1203.5,368.7z"/>
	<path class="st1" d="M1274.4,332.2l12.8,24.9l24.2-12.5l9.6,18.7l-24.4,12.6l19.5,37.9c4.3,8.4,11,10.1,17.8,6.6
		c3.4-1.7,6.7-4.8,9.1-8.1l15.6,15.4c-4.9,5.7-9.5,9.4-16,13c-18.7,10.5-36.7,6.1-48-15.8l-19.5-37.9l-16.4,8.4l-9.6-18.7l16.4-8.4
		l-11.6-22.6L1274.4,332.2z"/>
	<path class="st1" d="M1330.1,288.3l64.1,124.2l-21.5,11.1l-64.1-124.3L1330.1,288.3z"/>
	<path class="st1" d="M1413.1,357.2c7,10.1,20.5,13.1,35.8,5.2c8-4.1,16.9-12.6,19.2-20.3l20.9,6.5c-4.3,14.4-17,26.8-30.4,33.7
		c-30.2,15.6-57.8,6.2-72.3-21.9c-13.7-26.7-5.5-55.2,22.9-69.9c29.3-15.1,57-6.4,72.2,31.4L1413.1,357.2z M1451.5,314.6
		c-7.3-10.6-19.1-11.7-31.6-5.3c-11.7,6-18.4,16.7-15.7,29.7L1451.5,314.6z"/>
</g>
<g>
	<path class="st2" d="M1027.5,520.8l25,48.5c0.5-11.7,12.3-24.1,21.6-28.9c25.6-13.2,52.7-7.4,68.3,22.9
		c14.8,28.8,4.3,55.9-21.5,69.1c-10.7,5.5-23.3,7.5-35.5,0.5l4.8,12.8l-20.3,10.4L1005.8,532L1027.5,520.8z M1070.3,600.4
		c8.2,15.8,25,19.7,38.7,12.7c13.9-7.2,19.5-23.3,11.6-38.6c-8.2-15.8-24.2-19.9-38.1-12.8C1068.9,568.7,1062.5,585.1,1070.3,600.4z
		"/>
	<path class="st2" d="M1205.3,475.4l20.8-10.7l45.2,87.6l-20.4,10.5l-7.7-12.2c0.3,12.9-10.8,24.9-20.5,30.1
		c-25.9,13.6-53.3,7.5-69.2-23.3c-15.6-30.2-3.7-56.4,22-69.4c11.7-6.1,25.8-6.3,35.2-0.2L1205.3,475.4z M1175.2,546.3
		c8.6,16.7,25.3,20.7,39.7,13.3c34.1-17.6,6.7-70.7-27.4-53.1C1173.1,513.9,1166.6,529.6,1175.2,546.3z"/>
	<path class="st2" d="M1258.5,416.7l12.8,24.9l24.2-12.5l9.6,18.7l-24.4,12.6l19.5,37.9c4.3,8.4,11,10.1,17.8,6.6
		c3.4-1.7,6.7-4.8,9.1-8.1l15.6,15.4c-4.9,5.7-9.5,9.4-16,13c-18.7,10.5-36.7,6.1-48-15.8l-19.5-37.9l-16.4,8.4l-9.6-18.7l16.4-8.4
		l-11.6-22.6L1258.5,416.7z"/>
	<path class="st2" d="M1329.4,380.2l12.8,24.9l24.2-12.5l9.6,18.7l-24.4,12.6l19.5,37.9c4.3,8.4,11,10.1,17.8,6.6
		c3.4-1.7,6.7-4.8,9.1-8.1l15.6,15.4c-4.9,5.7-9.5,9.4-16,13c-18.7,10.5-36.7,6.1-48-15.8l-19.5-37.9l-16.4,8.4l-9.6-18.7l16.4-8.4
		l-11.6-22.6L1329.4,380.2z"/>
	<path class="st2" d="M1385.1,336.3l64.1,124.2l-21.5,11.1l-64.1-124.3L1385.1,336.3z"/>
	<path class="st2" d="M1468.1,405.2c7,10.1,20.5,13.1,35.8,5.2c8-4.1,16.9-12.6,19.2-20.3l20.9,6.5c-4.3,14.4-17,26.8-30.4,33.7
		c-30.2,15.6-57.8,6.2-72.3-21.9c-13.7-26.7-5.5-55.2,22.9-69.9c29.3-15.1,57-6.4,72.2,31.4L1468.1,405.2z M1506.5,362.6
		c-7.3-10.6-19.1-11.7-31.6-5.3c-11.7,6-18.4,16.7-15.7,29.7L1506.5,362.6z"/>
</g>
<polygon class="st3" points="163,149 301,149 327,226 191.1,226 "/>
<polygon class="st4" points="559.5,149 301,149 327,226 531.4,226 "/>
<polygon class="st5" points="603.3,226 631,148 658.7,226 "/>
<polygon class="st6" points="706,148 733.7,226 956.3,226 984,148 "/>
<polyline class="st1" points="1091,226 1036,226 1066,148 "/>
<polyline class="st2" points="1341,148 1312,226 1091,226 1066,148 "/>
</svg>
