<?xml version="1.0" encoding="utf-8"?>
<!-- Generator: Adobe Illustrator 21.0.0, SVG Export Plug-In . SVG Version: 6.00 Build 0)  -->
<svg version="1.1" xmlns="http://www.w3.org/2000/svg" xmlns:xlink="http://www.w3.org/1999/xlink" x="0px" y="0px"
	 viewBox="0 0 1366 768" style="enable-background:new 0 0 1366 768;" xml:space="preserve">
<style type="text/css">
	.st0{display:none;}
	.st1{display:inline;}
	.st2{fill:#662D91;}
	.st3{fill:none;}
	.st4{fill:#0000FF;}
	.st5{font-family:'NexaBold';}
	.st6{font-size:200px;}
	.st7{fill:#FF00FF;}
	.st8{fill:#FF0000;}
	.st9{fill:#FFFF00;}
	.st10{fill:#00FF00;}
	.st11{fill:#00FFFF;}
</style>
<g id="Layer_2" class="st0">
	<rect x="-175" y="-116" class="st1" width="1894" height="1112"/>
</g>
<g id="Layer_1">
	<polyline class="st2" points="361,372 303.5,539.5 163.5,149 557.5,149 417.5,539.5 361,372 	"/>
	<g>
		<polygon class="st2" points="1341,148 1066,148 1036.5,226 1312.1,226 		"/>
		<polygon class="st2" points="1007.3,303 977,383 1254.1,383 1283.7,303 		"/>
		<polygon class="st2" points="918,539 1196,540 1225.6,460 947.9,460 		"/>
	</g>
	<polygon class="st2" points="631,148 492,539 770,539 	"/>
	<polygon class="st2" points="845,539 984,148 706,148 	"/>
	
		<rect x="967.1" y="288.6" transform="matrix(0.8888 -0.4583 0.4583 0.8888 -48.0905 674.3986)" class="st3" width="796.9" height="295.4"/>
	<text transform="matrix(0.8888 -0.4583 0.4583 0.8888 1007.7725 611.8718)" class="st4 st5 st6">battle</text>
	
		<rect x="1022.1" y="336.6" transform="matrix(0.8888 -0.4583 0.4583 0.8888 -63.9733 704.9452)" class="st3" width="796.9" height="295.4"/>
	<text transform="matrix(0.8888 -0.4583 0.4583 0.8888 1062.7726 659.8718)" class="st7 st5 st6">battle</text>
	<polygon class="st8" points="163,149 301,149 327,226 191.1,226 	"/>
	<polygon class="st9" points="559.5,149 301,149 327,226 531.4,226 	"/>
	<polygon class="st10" points="603.3,226 631,148 658.7,226 	"/>
	<polygon class="st11" points="706,148 733.7,226 956.3,226 984,148 	"/>
	<polyline class="st4" points="1091,226 1036,226 1066,148 	"/>
	<polyline class="st7" points="1341,148 1312,226 1091,226 1066,148 	"/>
</g>
</svg>
